<svg width="1655" height="541" xmlns="http://www.w3.org/2000/svg" xmlns:xlink="http://www.w3.org/1999/xlink" overflow="hidden"><defs><clipPath id="clip0"><rect x="589" y="1972" width="1655" height="541"/></clipPath></defs><g clip-path="url(#clip0)" transform="translate(-589 -1972)"><rect x="678.5" y="2159.5" width="262" height="160" stroke="#000000" stroke-width="3.4375" stroke-miterlimit="8" fill="#FFFFFF"/><text font-family="Calibri,Calibri_MSFontService,sans-serif" font-weight="400" font-size="50" transform="matrix(1 0 0 1 743.574 2258)">Server</text><rect x="1280.5" y="2159.5" width="262" height="160" stroke="#000000" stroke-width="3.4375" stroke-miterlimit="8" fill="#FFFFFF"/><text font-family="Calibri,Calibri_MSFontService,sans-serif" font-weight="400" font-size="50" transform="matrix(1 0 0 1 1342.65 2258)">Broker</text><rect x="1885.5" y="2054.5" width="261" height="160" stroke="#000000" stroke-width="3.4375" stroke-miterlimit="8" fill="#FFFFFF"/><text font-family="Calibri,Calibri_MSFontService,sans-serif" font-weight="400" font-size="50" transform="matrix(1 0 0 1 1937.82 2154)">Client 1</text><rect x="1885.5" y="2269.5" width="261" height="159" stroke="#000000" stroke-width="3.4375" stroke-miterlimit="8" fill="#FFFFFF"/><text font-family="Calibri,Calibri_MSFontService,sans-serif" font-weight="400" font-size="50" transform="matrix(1 0 0 1 1937.82 2368)">Client 2</text><path d="M940.5 2227.78 1258.12 2227.78 1258.12 2231.22 940.5 2231.22ZM1253.54 2215.75 1281.04 2229.5 1253.54 2243.25Z"/><path d="M0.512045-1.6407 321.468 98.5258 320.443 101.807-0.512045 1.6407ZM320.677 85.6754 342.832 106.994 312.484 111.927Z" transform="matrix(1 0 0 -1 1542.5 2214.49)"/><path d="M1543.05 2240.87 1864.17 2349.24 1863.07 2352.5 1541.95 2244.13ZM1863.67 2336.38 1885.33 2358.2 1854.88 2362.43Z"/><text font-family="Calibri,Calibri_MSFontService,sans-serif" font-weight="400" font-size="50" transform="matrix(1 0 0 1 1653.12 2123)">TCP<tspan font-size="50" x="2.29175" y="265">TCP</tspan></text><path d="M1.82147e-06-1.71875 317.623-1.71841 317.623 1.71909-1.82147e-06 1.71875ZM313.04-13.7497 340.54 0.000360892 313.04 13.7503Z" transform="matrix(-1 0 0 1 1281.04 2269.5)"/><text font-family="Calibri,Calibri_MSFontService,sans-serif" font-weight="400" font-size="50" transform="matrix(1 0 0 1 1073.56 2320)">ACK</text></g></svg>