<svg width="1632" height="2511" xmlns="http://www.w3.org/2000/svg" xmlns:xlink="http://www.w3.org/1999/xlink" overflow="hidden"><defs><clipPath id="clip0"><rect x="284" y="103" width="1632" height="2511"/></clipPath></defs><g clip-path="url(#clip0)" transform="translate(-284 -103)"><rect x="342.5" y="255.5" width="254" height="114" stroke="#000000" stroke-width="3.4375" stroke-miterlimit="8" fill="#FFFFFF"/><text font-family="Calibri,Calibri_MSFontService,sans-serif" font-weight="400" font-size="50" transform="matrix(1 0 0 1 409.905 331)">Client</text><rect x="1328.5" y="255.5" width="532" height="114" stroke="#000000" stroke-width="3.4375" stroke-miterlimit="8" fill="#FFFFFF"/><text font-family="Calibri,Calibri_MSFontService,sans-serif" font-weight="400" font-size="50" transform="matrix(1 0 0 1 1379.66 331)">Server (example.org)</text><path d="M468.5 369.5 468.5 2475.76" stroke="#000000" stroke-width="3.4375" stroke-linejoin="round" stroke-miterlimit="10" fill="none" fill-rule="evenodd"/><path d="M1460.5 369.5 1460.5 2475.76" stroke="#000000" stroke-width="3.4375" stroke-linejoin="round" stroke-miterlimit="10" fill="none" fill-rule="evenodd"/><path d="M468.654 534.788 1437.48 621.762 1437.17 625.186 468.346 538.212ZM1433.99 609.369 1460.15 625.523 1431.53 636.759Z"/><path d="M0.3068-1.69115 969.413 174.119 968.799 177.502-0.3068 1.69115ZM967.049 161.463 991.653 179.901 962.14 188.521Z" transform="matrix(-1 0 0 1 1460.15 805.5)"/><rect x="677.5" y="485.5" width="620" height="204" stroke="#000000" stroke-width="3.4375" stroke-miterlimit="8" fill="#FFFFFF"/><text font-family="Calibri,Calibri_MSFontService,sans-serif" font-weight="400" font-size="50" transform="matrix(1 0 0 1 710.384 553)">GET /index.html</text><rect x="677.5" y="757.5" width="620" height="265" stroke="#000000" stroke-width="3.4375" stroke-miterlimit="8" fill="#FFFFFF"/><text font-family="Calibri,Calibri_MSFontService,sans-serif" font-weight="400" font-size="46" transform="matrix(1 0 0 1 710.384 821)">HTTP/1.1<tspan font-size="46" x="0" y="179">This is your 1. visit</tspan></text><path d="M468.654 1141.79 1437.48 1228.76 1437.17 1232.19 468.346 1145.21ZM1433.99 1216.37 1460.15 1232.52 1431.53 1243.76Z"/><rect x="677.5" y="1091.5" width="620" height="239" stroke="#000000" stroke-width="3.4375" stroke-miterlimit="8" fill="#FFFFFF"/><text font-family="Calibri,Calibri_MSFontService,sans-serif" font-weight="400" font-size="50" transform="matrix(1 0 0 1 710.384 1160)">GET /index.html</text><path d="M0.3068-1.69115 969.413 174.119 968.799 177.502-0.3068 1.69115ZM967.049 161.463 991.653 179.901 962.14 188.521Z" transform="matrix(-1 0 0 1 1460.15 1483.5)"/><rect x="677.5" y="1411.5" width="620" height="264" stroke="#000000" stroke-width="3.4375" stroke-miterlimit="8" fill="#FFFFFF"/><text font-family="Calibri,Calibri_MSFontService,sans-serif" font-weight="400" font-size="46" transform="matrix(1 0 0 1 710.384 1475)">HTTP/1.1<tspan font-size="46" x="0" y="179">This is your 2. visit</tspan></text><path d="M468.654 1806.79 1437.48 1893.76 1437.17 1897.19 468.346 1810.21ZM1433.99 1881.37 1460.15 1897.52 1431.53 1908.76Z"/><rect x="677.5" y="1756.5" width="620" height="239" stroke="#000000" stroke-width="3.4375" stroke-miterlimit="8" fill="#FFFFFF"/><text font-family="Calibri,Calibri_MSFontService,sans-serif" font-weight="400" font-size="50" transform="matrix(1 0 0 1 710.384 1825)">GET /index.html</text><path d="M0.3068-1.69115 969.413 174.119 968.799 177.502-0.3068 1.69115ZM967.049 161.463 991.653 179.901 962.14 188.521Z" transform="matrix(-1 0 0 1 1460.15 2148.5)"/><rect x="677.5" y="2076.5" width="620" height="264" stroke="#000000" stroke-width="3.4375" stroke-miterlimit="8" fill="#FFFFFF"/><text font-family="Calibri,Calibri_MSFontService,sans-serif" font-weight="400" font-size="46" transform="matrix(1 0 0 1 710.384 2140)">HTTP/1.1<tspan font-size="46" x="0" y="179">This is your 3. visit</tspan></text></g></svg>